<?xml version="1.0" encoding="UTF-8" standalone="no"?>
<!-- Created with Inkscape (http://www.inkscape.org/) -->

<svg
   xmlns:dc="http://purl.org/dc/elements/1.1/"
   xmlns:cc="http://creativecommons.org/ns#"
   xmlns:rdf="http://www.w3.org/1999/02/22-rdf-syntax-ns#"
   xmlns:svg="http://www.w3.org/2000/svg"
   xmlns="http://www.w3.org/2000/svg"
   xmlns:sodipodi="http://sodipodi.sourceforge.net/DTD/sodipodi-0.dtd"
   xmlns:inkscape="http://www.inkscape.org/namespaces/inkscape"
   width="219mm"
   height="35mm"
   viewBox="0 0 219 35"
   version="1.1"
   id="svg8"
   inkscape:version="0.92.3 (2405546, 2018-03-11)"
   sodipodi:docname="vertical-short.svg">
  <defs
     id="defs2" />
  <sodipodi:namedview
     id="base"
     pagecolor="#ffffff"
     bordercolor="#666666"
     borderopacity="1.0"
     inkscape:pageopacity="0.0"
     inkscape:pageshadow="2"
     inkscape:zoom="2.8"
     inkscape:cx="140.55086"
     inkscape:cy="79.445311"
     inkscape:document-units="mm"
     inkscape:current-layer="layer1"
     showgrid="true"
     inkscape:window-width="1920"
     inkscape:window-height="1043"
     inkscape:window-x="1920"
     inkscape:window-y="0"
     inkscape:window-maximized="1"
     showguides="true"
     inkscape:guide-bbox="true"
     inkscape:snap-grids="true"
     inkscape:snap-page="false"
     inkscape:measure-start="73.7008,132.204"
     inkscape:measure-end="86.9291,132.204">
    <sodipodi:guide
       position="19.5,0"
       orientation="1,0"
       id="guide4538"
       inkscape:locked="false"
       inkscape:label=""
       inkscape:color="rgb(0,0,255)" />
    <sodipodi:guide
       position="198.5,0"
       orientation="1,0"
       id="guide4540"
       inkscape:locked="false"
       inkscape:label=""
       inkscape:color="rgb(0,0,255)" />
    <sodipodi:guide
       position="37.4,0"
       orientation="1,0"
       id="guide4542"
       inkscape:locked="false"
       inkscape:label=""
       inkscape:color="rgb(0,0,255)" />
    <sodipodi:guide
       position="55.3,0"
       orientation="1,0"
       id="guide4544"
       inkscape:locked="false"
       inkscape:label=""
       inkscape:color="rgb(0,0,255)" />
    <sodipodi:guide
       position="73.2,0"
       orientation="1,0"
       id="guide4546"
       inkscape:locked="false"
       inkscape:label=""
       inkscape:color="rgb(0,0,255)" />
    <sodipodi:guide
       position="91.1,0"
       orientation="1,0"
       id="guide4548"
       inkscape:locked="false"
       inkscape:label=""
       inkscape:color="rgb(0,0,255)" />
    <sodipodi:guide
       position="109,0"
       orientation="1,0"
       id="guide4550"
       inkscape:locked="false"
       inkscape:label=""
       inkscape:color="rgb(0,0,255)" />
    <sodipodi:guide
       position="126.9,0"
       orientation="1,0"
       id="guide4552"
       inkscape:locked="false"
       inkscape:label=""
       inkscape:color="rgb(0,0,255)" />
    <sodipodi:guide
       position="144.8,0"
       orientation="1,0"
       id="guide4554"
       inkscape:locked="false"
       inkscape:label=""
       inkscape:color="rgb(0,0,255)" />
    <sodipodi:guide
       position="162.7,0"
       orientation="1,0"
       id="guide4556"
       inkscape:locked="false"
       inkscape:label=""
       inkscape:color="rgb(0,0,255)" />
    <sodipodi:guide
       position="180.6,0"
       orientation="1,0"
       id="guide4617"
       inkscape:locked="false"
       inkscape:label=""
       inkscape:color="rgb(0,0,255)" />
    <sodipodi:guide
       position="0,0"
       orientation="1,0"
       id="guide824"
       inkscape:locked="false"
       inkscape:label=""
       inkscape:color="rgb(0,0,255)" />
    <sodipodi:guide
       position="219,0"
       orientation="1,0"
       id="guide826"
       inkscape:locked="false"
       inkscape:label=""
       inkscape:color="rgb(0,0,255)" />
    <sodipodi:guide
       position="23,0"
       orientation="1,0"
       id="guide827"
       inkscape:locked="false"
       inkscape:label=""
       inkscape:color="rgb(0,0,255)" />
  </sodipodi:namedview>
  <metadata
     id="metadata5">
    <rdf:RDF>
      <cc:Work
         rdf:about="">
        <dc:format>image/svg+xml</dc:format>
        <dc:type
           rdf:resource="http://purl.org/dc/dcmitype/StillImage" />
        <dc:title />
      </cc:Work>
    </rdf:RDF>
  </metadata>
  <g
     inkscape:label="Ebene 1"
     inkscape:groupmode="layer"
     id="layer1"
     transform="translate(0,-262)">
    <path
       style="opacity:1;fill:#000000;fill-opacity:0.15267178;stroke:none;stroke-width:0.66774166;stroke-miterlimit:4;stroke-dasharray:none;stroke-dashoffset:0;stroke-opacity:0.19678716"
       d="M 81.259728,2.6464844 V 66.142578 H 77.480431 V 132.2832 h 13.228553 c 0.0072,-1.04328 10.158386,-1.8887 22.677736,-1.88867 12.51859,6e-5 22.66853,0.84545 22.67578,1.88867 h 18.33203 c 0.007,-1.04322 10.15719,-1.88861 22.67578,-1.88867 12.51935,-3e-5 22.67049,0.84539 22.67774,1.88867 h 22.29883 c 0.007,-1.04328 10.15838,-1.8887 22.67773,-1.88867 12.51935,-3e-5 22.67048,0.84539 22.67773,1.88867 h 22.29883 c 0.007,-1.04328 10.15839,-1.8887 22.67774,-1.88867 12.51859,6e-5 22.66853,0.84545 22.67578,1.88867 h 22.29883 c 0.007,-1.04328 10.15838,-1.8887 22.67773,-1.88867 12.51935,-3e-5 22.67048,0.84539 22.67773,1.88867 h 22.30274 c 0.007,-1.04328 10.15838,-1.8887 22.67773,-1.88867 12.51859,6e-5 22.66853,0.84545 22.67578,1.88867 h 22.29688 c 0.007,-1.04322 10.15719,-1.88861 22.67578,-1.88867 12.51935,-3e-5 22.67048,0.84539 22.67773,1.88867 h 22.29883 c 0.007,-1.04328 10.15839,-1.8887 22.67774,-1.88867 12.51935,-3e-5 22.67048,0.84539 22.67773,1.88867 h 22.29883 c 0.007,-1.04328 10.15838,-1.8887 22.67773,-1.88867 12.51859,6e-5 22.66854,0.84545 22.67579,1.88867 h 22.29882 c 0.007,-1.04328 10.15839,-1.8887 22.67774,-1.88867 12.51935,-3e-5 22.67048,0.84539 22.67773,1.88867 h 22.48828 c 6.1e-4,-6.99042 5.32843,-13.079 13.22852,-16.34765 V 2.6464844 H 754.01758 V 66.142578 h -3.78125 V 2.6464844 H 688.25195 V 66.142578 h -7.55859 V 2.6464844 H 618.70898 V 66.142578 h -3.77929 V 2.6464844 H 552.94531 V 66.142578 h -7.55859 V 2.6464844 H 483.40234 V 66.142578 h -3.77929 V 2.6464844 H 417.63867 V 66.142578 h -7.55859 V 2.6464844 H 348.0957 V 66.142578 h -3.77929 V 2.6464844 H 282.33203 V 66.142578 h -7.55859 V 2.6464844 H 212.78906 V 66.142578 h -3.78125 V 2.6464844 H 147.02539 V 66.142578 h -7.56055 V 2.6464844 Z"
       transform="matrix(0.26458333,0,0,0.26458333,0,262)"
       id="rect815"
       inkscape:connector-curvature="0"
       sodipodi:nodetypes="cccccccccccccccccccccccccccccccccccccccccccccccccccccccccccccccccccccccccccccc" />
  </g>
</svg>
