<?xml version="1.0" encoding="UTF-8" standalone="no"?>
<!-- Created with Inkscape (http://www.inkscape.org/) -->

<svg
   xmlns:dc="http://purl.org/dc/elements/1.1/"
   xmlns:cc="http://creativecommons.org/ns#"
   xmlns:rdf="http://www.w3.org/1999/02/22-rdf-syntax-ns#"
   xmlns:svg="http://www.w3.org/2000/svg"
   xmlns="http://www.w3.org/2000/svg"
   xmlns:sodipodi="http://sodipodi.sourceforge.net/DTD/sodipodi-0.dtd"
   xmlns:inkscape="http://www.inkscape.org/namespaces/inkscape"
   width="219mm"
   height="35mm"
   viewBox="0 0 219 35"
   version="1.1"
   id="svg8"
   inkscape:version="0.92.3 (2405546, 2018-03-11)"
   sodipodi:docname="vertical-small.svg">
  <defs
     id="defs2" />
  <sodipodi:namedview
     id="base"
     pagecolor="#ffffff"
     bordercolor="#666666"
     borderopacity="1.0"
     inkscape:pageopacity="0.0"
     inkscape:pageshadow="2"
     inkscape:zoom="3.959798"
     inkscape:cx="79.20083"
     inkscape:cy="83.457878"
     inkscape:document-units="mm"
     inkscape:current-layer="layer1"
     showgrid="true"
     inkscape:window-width="1920"
     inkscape:window-height="1043"
     inkscape:window-x="1920"
     inkscape:window-y="0"
     inkscape:window-maximized="1"
     showguides="true"
     inkscape:guide-bbox="true"
     inkscape:snap-grids="true"
     inkscape:snap-page="false"
     inkscape:measure-start="73.7008,132.204"
     inkscape:measure-end="86.9291,132.204">
    <sodipodi:guide
       position="198.5,0"
       orientation="1,0"
       id="guide4540"
       inkscape:locked="false"
       inkscape:label=""
       inkscape:color="rgb(0,0,255)" />
    <sodipodi:guide
       position="37.4,0"
       orientation="1,0"
       id="guide4542"
       inkscape:locked="false"
       inkscape:label=""
       inkscape:color="rgb(0,0,255)" />
    <sodipodi:guide
       position="55.3,0"
       orientation="1,0"
       id="guide4544"
       inkscape:locked="false"
       inkscape:label=""
       inkscape:color="rgb(0,0,255)" />
    <sodipodi:guide
       position="73.2,0"
       orientation="1,0"
       id="guide4546"
       inkscape:locked="false"
       inkscape:label=""
       inkscape:color="rgb(0,0,255)" />
    <sodipodi:guide
       position="91.1,0"
       orientation="1,0"
       id="guide4548"
       inkscape:locked="false"
       inkscape:label=""
       inkscape:color="rgb(0,0,255)" />
    <sodipodi:guide
       position="109,0"
       orientation="1,0"
       id="guide4550"
       inkscape:locked="false"
       inkscape:label=""
       inkscape:color="rgb(0,0,255)" />
    <sodipodi:guide
       position="126.9,0"
       orientation="1,0"
       id="guide4552"
       inkscape:locked="false"
       inkscape:label=""
       inkscape:color="rgb(0,0,255)" />
    <sodipodi:guide
       position="144.8,0"
       orientation="1,0"
       id="guide4554"
       inkscape:locked="false"
       inkscape:label=""
       inkscape:color="rgb(0,0,255)" />
    <sodipodi:guide
       position="162.7,0"
       orientation="1,0"
       id="guide4556"
       inkscape:locked="false"
       inkscape:label=""
       inkscape:color="rgb(0,0,255)" />
    <sodipodi:guide
       position="180.6,0"
       orientation="1,0"
       id="guide4617"
       inkscape:locked="false"
       inkscape:label=""
       inkscape:color="rgb(0,0,255)" />
    <sodipodi:guide
       position="0,0"
       orientation="1,0"
       id="guide824"
       inkscape:locked="false"
       inkscape:label=""
       inkscape:color="rgb(0,0,255)" />
    <sodipodi:guide
       position="219,0"
       orientation="1,0"
       id="guide826"
       inkscape:locked="false"
       inkscape:label=""
       inkscape:color="rgb(0,0,255)" />
    <sodipodi:guide
       position="23,0"
       orientation="1,0"
       id="guide827"
       inkscape:locked="false"
       inkscape:label=""
       inkscape:color="rgb(0,0,255)" />
  </sodipodi:namedview>
  <metadata
     id="metadata5">
    <rdf:RDF>
      <cc:Work
         rdf:about="">
        <dc:format>image/svg+xml</dc:format>
        <dc:type
           rdf:resource="http://purl.org/dc/dcmitype/StillImage" />
        <dc:title />
      </cc:Work>
    </rdf:RDF>
  </metadata>
  <g
     inkscape:label="Ebene 1"
     inkscape:groupmode="layer"
     id="layer1"
     transform="translate(0,-262)">
    <path
       style="opacity:1;fill:#000000;fill-opacity:0.15267178;stroke:none;stroke-width:0.66774166;stroke-miterlimit:4;stroke-dasharray:none;stroke-dashoffset:0;stroke-opacity:0.19678716"
       d="M 71.811025,2.6456693 V 115.93555 c 4.032986,0 7.558375,5.5944 7.559055,16.34765 h 11.338904 c 7.53e-4,-6.26196 10.153796,-11.33804 22.677736,-11.33789 12.52394,-1.5e-4 22.67698,5.07593 22.67773,11.33789 h 18.33008 c 7.5e-4,-6.26196 10.15379,-11.33804 22.67774,-11.33789 12.52318,3.8e-4 22.67502,5.07631 22.67578,11.33789 h 22.30078 c 7.5e-4,-6.26158 10.1526,-11.33751 22.67578,-11.33789 12.52394,-1.5e-4 22.67698,5.07593 22.67773,11.33789 h 22.29883 c 7.5e-4,-6.26196 10.1538,-11.33804 22.67774,-11.33789 12.52394,-1.5e-4 22.67698,5.07593 22.67773,11.33789 h 22.29883 c 7.5e-4,-6.26196 10.15378,-11.33804 22.67773,-11.33789 12.52317,3.8e-4 22.67503,5.07631 22.67578,11.33789 h 22.30079 c 7.5e-4,-6.26158 10.15261,-11.33751 22.67578,-11.33789 12.52395,-1.5e-4 22.67698,5.07593 22.67773,11.33789 h 22.29883 c 7.6e-4,-6.26196 10.15378,-11.33804 22.67773,-11.33789 12.52396,-1.5e-4 22.67698,5.07593 22.67774,11.33789 h 22.29883 c 7.5e-4,-6.26158 10.15262,-11.33751 22.67578,-11.33789 12.52395,-1.5e-4 22.67698,5.07593 22.67773,11.33789 h 22.29883 c 7.6e-4,-6.26196 10.15378,-11.33804 22.67773,-11.33789 12.52396,-1.5e-4 22.67698,5.07593 22.67774,11.33789 h 22.29883 c 7.5e-4,-6.26196 10.15378,-11.33804 22.67773,-11.33789 12.52316,3.8e-4 22.67503,5.07631 22.67578,11.33789 h 18.70849 c 8.7e-4,-10.02088 2.43686,-16.34765 7.55905,-16.34765 V 2.6456693 H 754.01758 V 66.142578 h -3.78125 V 2.6456693 H 688.25195 V 66.142578 h -7.55859 V 2.6456693 H 618.70898 V 66.142578 h -3.77929 V 2.6456693 H 552.94531 V 66.142578 h -7.55859 V 2.6456693 H 483.40234 V 66.142578 h -3.77929 V 2.6456693 H 417.63867 V 66.142578 h -7.55859 V 2.6456693 H 348.0957 V 66.142578 h -3.77929 V 2.6456693 H 282.33203 V 66.142578 h -7.55859 V 2.6456693 H 212.78906 V 66.142578 h -3.78125 V 2.6456693 H 147.02539 V 66.142578 h -7.56055 V 2.6456693 H 88.818359 V 66.142578 H 85.039062 V 2.6456693 Z"
       transform="matrix(0.26458333,0,0,0.26458333,0,262)"
       id="rect815"
       inkscape:connector-curvature="0"
       sodipodi:nodetypes="ccccccccccccccccccccccccccccccccccccccccccccccccccccccccccccccccccccccccccccccccc" />
  </g>
</svg>
