<?xml version="1.0" encoding="UTF-8" standalone="no"?>
<!-- Created with Inkscape (http://www.inkscape.org/) -->

<svg
   xmlns:dc="http://purl.org/dc/elements/1.1/"
   xmlns:cc="http://creativecommons.org/ns#"
   xmlns:rdf="http://www.w3.org/1999/02/22-rdf-syntax-ns#"
   xmlns:svg="http://www.w3.org/2000/svg"
   xmlns="http://www.w3.org/2000/svg"
   xmlns:sodipodi="http://sodipodi.sourceforge.net/DTD/sodipodi-0.dtd"
   xmlns:inkscape="http://www.inkscape.org/namespaces/inkscape"
   width="219mm"
   height="35mm"
   viewBox="0 0 219 35"
   version="1.1"
   id="svg8"
   inkscape:version="0.92.3 (2405546, 2018-03-11)"
   sodipodi:docname="vertical-large.svg">
  <defs
     id="defs2" />
  <sodipodi:namedview
     id="base"
     pagecolor="#ffffff"
     bordercolor="#666666"
     borderopacity="1.0"
     inkscape:pageopacity="0.0"
     inkscape:pageshadow="2"
     inkscape:zoom="7.9195959"
     inkscape:cx="836.35911"
     inkscape:cy="51.607826"
     inkscape:document-units="mm"
     inkscape:current-layer="layer1"
     showgrid="true"
     inkscape:window-width="1920"
     inkscape:window-height="1043"
     inkscape:window-x="1920"
     inkscape:window-y="0"
     inkscape:window-maximized="1"
     showguides="true"
     inkscape:guide-bbox="true"
     inkscape:snap-grids="true"
     inkscape:snap-page="false">
    <sodipodi:guide
       position="19.5,0"
       orientation="1,0"
       id="guide4538"
       inkscape:locked="false"
       inkscape:label=""
       inkscape:color="rgb(0,0,255)" />
    <sodipodi:guide
       position="198.5,0"
       orientation="1,0"
       id="guide4540"
       inkscape:locked="false"
       inkscape:label=""
       inkscape:color="rgb(0,0,255)" />
    <sodipodi:guide
       position="37.4,0"
       orientation="1,0"
       id="guide4542"
       inkscape:locked="false"
       inkscape:label=""
       inkscape:color="rgb(0,0,255)" />
    <sodipodi:guide
       position="55.3,0"
       orientation="1,0"
       id="guide4544"
       inkscape:locked="false"
       inkscape:label=""
       inkscape:color="rgb(0,0,255)" />
    <sodipodi:guide
       position="73.2,0"
       orientation="1,0"
       id="guide4546"
       inkscape:locked="false"
       inkscape:label=""
       inkscape:color="rgb(0,0,255)" />
    <sodipodi:guide
       position="91.1,0"
       orientation="1,0"
       id="guide4548"
       inkscape:locked="false"
       inkscape:label=""
       inkscape:color="rgb(0,0,255)" />
    <sodipodi:guide
       position="109,0"
       orientation="1,0"
       id="guide4550"
       inkscape:locked="false"
       inkscape:label=""
       inkscape:color="rgb(0,0,255)" />
    <sodipodi:guide
       position="126.9,0"
       orientation="1,0"
       id="guide4552"
       inkscape:locked="false"
       inkscape:label=""
       inkscape:color="rgb(0,0,255)" />
    <sodipodi:guide
       position="144.8,0"
       orientation="1,0"
       id="guide4554"
       inkscape:locked="false"
       inkscape:label=""
       inkscape:color="rgb(0,0,255)" />
    <sodipodi:guide
       position="162.7,0"
       orientation="1,0"
       id="guide4556"
       inkscape:locked="false"
       inkscape:label=""
       inkscape:color="rgb(0,0,255)" />
    <sodipodi:guide
       position="180.6,0"
       orientation="1,0"
       id="guide4617"
       inkscape:locked="false"
       inkscape:label=""
       inkscape:color="rgb(0,0,255)" />
    <sodipodi:guide
       position="0,0"
       orientation="1,0"
       id="guide824"
       inkscape:locked="false"
       inkscape:label=""
       inkscape:color="rgb(0,0,255)" />
    <sodipodi:guide
       position="219,0"
       orientation="1,0"
       id="guide826"
       inkscape:locked="false"
       inkscape:label=""
       inkscape:color="rgb(0,0,255)" />
  </sodipodi:namedview>
  <metadata
     id="metadata5">
    <rdf:RDF>
      <cc:Work
         rdf:about="">
        <dc:format>image/svg+xml</dc:format>
        <dc:type
           rdf:resource="http://purl.org/dc/dcmitype/StillImage" />
        <dc:title></dc:title>
      </cc:Work>
    </rdf:RDF>
  </metadata>
  <g
     inkscape:label="Ebene 1"
     inkscape:groupmode="layer"
     id="layer1"
     transform="translate(0,-262)">
    <path
       style="opacity:1;fill:#000000;fill-opacity:0.15267178;stroke:none;stroke-width:0.17667331;stroke-miterlimit:4;stroke-dasharray:none;stroke-dashoffset:0;stroke-opacity:0.19678716"
       d="m 7.4997669,262 v 19.99981 H 0 v 15.00012 h 22.949986 c 1.99e-4,-1.65681 2.686524,-2.99986 6.00015,-2.99982 3.313627,-4e-5 5.999953,1.34301 6.000152,2.99982 h 5.899899 c 1.99e-4,-1.65681 2.686523,-2.99986 6.000149,-2.99982 3.313425,10e-5 5.999434,1.34311 5.999633,2.99982 h 5.900415 c 1.99e-4,-1.65671 2.686208,-2.99972 5.999633,-2.99982 3.313627,-4e-5 5.999953,1.34301 6.000152,2.99982 h 5.899899 c 1.99e-4,-1.65681 2.686523,-2.99986 6.000149,-2.99982 3.313627,-4e-5 5.999953,1.34301 6.000152,2.99982 h 5.899896 c 1.99e-4,-1.65681 2.686527,-2.99986 6.000155,-2.99982 3.31342,10e-5 5.99943,1.34311 5.99963,2.99982 h 5.90042 c 2e-4,-1.65671 2.68621,-2.99972 5.99963,-2.99982 3.31363,-4e-5 5.99995,1.34301 6.00015,2.99982 h 5.8999 c 2e-4,-1.65681 2.68652,-2.99986 6.00015,-2.99982 3.31363,-4e-5 5.99995,1.34301 6.00015,2.99982 h 5.8999 c 2e-4,-1.65671 2.68621,-2.99972 5.99963,-2.99982 3.31363,-4e-5 5.99995,1.34301 6.00015,2.99982 h 5.8999 c 2e-4,-1.65681 2.68652,-2.99986 6.00015,-2.99982 3.31363,-4e-5 5.99995,1.34301 6.00015,2.99982 h 5.8999 c 2e-4,-1.65681 2.68652,-2.99986 6.00015,-2.99982 3.31342,10e-5 5.99943,1.34311 5.99963,2.99982 H 219 v -15.00012 h -7.50028 V 262 h -11.99927 v 17.50022 h -1.00046 V 262 h -16.40003 v 17.50022 h -1.99988 V 262 h -16.40003 v 17.50022 h -0.99994 V 262 h -16.40003 v 17.50022 H 144.3002 V 262 h -16.40003 v 17.50022 h -0.99994 V 262 H 110.5002 v 17.50022 h -1.99988 V 262 H 92.100287 v 17.50022 h -0.99994 V 262 H 74.700316 v 17.50022 H 72.700437 V 262 H 56.300406 v 17.50022 H 55.29995 V 262 H 38.900435 v 17.50022 H 36.900039 V 262 H 20.500007 v 17.50022 H 19.500068 V 262 Z"
       id="rect815"
       inkscape:connector-curvature="0"
       sodipodi:nodetypes="ccccccccccccccccccccccccccccccccccccccccccccccccccccccccccccccccccccccccccccccccccc" />
  </g>
</svg>
