<?xml version="1.0" encoding="UTF-8" standalone="no"?>
<!-- Created with Inkscape (http://www.inkscape.org/) -->

<svg
   xmlns:dc="http://purl.org/dc/elements/1.1/"
   xmlns:cc="http://creativecommons.org/ns#"
   xmlns:rdf="http://www.w3.org/1999/02/22-rdf-syntax-ns#"
   xmlns:svg="http://www.w3.org/2000/svg"
   xmlns="http://www.w3.org/2000/svg"
   xmlns:sodipodi="http://sodipodi.sourceforge.net/DTD/sodipodi-0.dtd"
   xmlns:inkscape="http://www.inkscape.org/namespaces/inkscape"
   width="218mm"
   height="35mm"
   viewBox="0 0 218 35"
   version="1.1"
   id="svg8"
   inkscape:version="0.92.3 (2405546, 2018-03-11)"
   sodipodi:docname="vertical-small.svg">
  <defs
     id="defs2" />
  <sodipodi:namedview
     id="base"
     pagecolor="#ffffff"
     bordercolor="#666666"
     borderopacity="1.0"
     inkscape:pageopacity="0.0"
     inkscape:pageshadow="2"
     inkscape:zoom="1.4142136"
     inkscape:cx="446.24425"
     inkscape:cy="79.086106"
     inkscape:document-units="mm"
     inkscape:current-layer="layer1"
     showgrid="true"
     inkscape:window-width="1920"
     inkscape:window-height="1043"
     inkscape:window-x="1920"
     inkscape:window-y="0"
     inkscape:window-maximized="1"
     showguides="true"
     inkscape:guide-bbox="true"
     inkscape:snap-grids="true"
     inkscape:snap-page="false">
    <sodipodi:guide
       position="19.5,0"
       orientation="1,0"
       id="guide4538"
       inkscape:locked="false"
       inkscape:label=""
       inkscape:color="rgb(0,0,255)" />
    <sodipodi:guide
       position="198.5,0"
       orientation="1,0"
       id="guide4540"
       inkscape:locked="false"
       inkscape:label=""
       inkscape:color="rgb(0,0,255)" />
    <sodipodi:guide
       position="37.4,0"
       orientation="1,0"
       id="guide4542"
       inkscape:locked="false"
       inkscape:label=""
       inkscape:color="rgb(0,0,255)" />
    <sodipodi:guide
       position="55.3,0"
       orientation="1,0"
       id="guide4544"
       inkscape:locked="false"
       inkscape:label=""
       inkscape:color="rgb(0,0,255)" />
    <sodipodi:guide
       position="73.2,0"
       orientation="1,0"
       id="guide4546"
       inkscape:locked="false"
       inkscape:label=""
       inkscape:color="rgb(0,0,255)" />
    <sodipodi:guide
       position="91.1,0"
       orientation="1,0"
       id="guide4548"
       inkscape:locked="false"
       inkscape:label=""
       inkscape:color="rgb(0,0,255)" />
    <sodipodi:guide
       position="109,0"
       orientation="1,0"
       id="guide4550"
       inkscape:locked="false"
       inkscape:label=""
       inkscape:color="rgb(0,0,255)" />
    <sodipodi:guide
       position="126.9,0"
       orientation="1,0"
       id="guide4552"
       inkscape:locked="false"
       inkscape:label=""
       inkscape:color="rgb(0,0,255)" />
    <sodipodi:guide
       position="144.8,0"
       orientation="1,0"
       id="guide4554"
       inkscape:locked="false"
       inkscape:label=""
       inkscape:color="rgb(0,0,255)" />
    <sodipodi:guide
       position="162.7,0"
       orientation="1,0"
       id="guide4556"
       inkscape:locked="false"
       inkscape:label=""
       inkscape:color="rgb(0,0,255)" />
    <sodipodi:guide
       position="180.6,0"
       orientation="1,0"
       id="guide4617"
       inkscape:locked="false"
       inkscape:label=""
       inkscape:color="rgb(0,0,255)" />
  </sodipodi:namedview>
  <metadata
     id="metadata5">
    <rdf:RDF>
      <cc:Work
         rdf:about="">
        <dc:format>image/svg+xml</dc:format>
        <dc:type
           rdf:resource="http://purl.org/dc/dcmitype/StillImage" />
        <dc:title />
      </cc:Work>
    </rdf:RDF>
  </metadata>
  <g
     inkscape:label="Ebene 1"
     inkscape:groupmode="layer"
     id="layer1"
     transform="translate(0,-262)">
    <path
       style="opacity:1;fill:#000000;fill-opacity:0.15267178;stroke:none;stroke-width:0.66774166;stroke-miterlimit:4;stroke-dasharray:none;stroke-dashoffset:0;stroke-opacity:0.19678716"
       d="m 51.023438,0 v 117.16602 a 7.559054,15.11811 0 0 1 7.558593,15.11718 h 26.267578 a 22.677165,3.7795276 0 0 1 22.677731,-3.77929 22.677165,3.7795276 0 0 1 22.67774,3.77929 h 22.29883 a 22.677165,3.7795276 0 0 1 22.67773,-3.77929 22.677165,3.7795276 0 0 1 22.67578,3.77929 h 22.30078 a 22.677165,3.7795276 0 0 1 22.67578,-3.77929 22.677165,3.7795276 0 0 1 22.67774,3.77929 h 22.29883 a 22.677165,3.7795276 0 0 1 22.67773,-3.77929 22.677165,3.7795276 0 0 1 22.67774,3.77929 h 22.29882 a 22.677165,3.7795276 0 0 1 22.67774,-3.77929 22.677165,3.7795276 0 0 1 22.67578,3.77929 h 22.29883 a 22.677165,3.7795276 0 0 1 22.67773,-3.77929 22.677165,3.7795276 0 0 1 22.67774,3.77929 h 22.29882 a 22.677165,3.7795276 0 0 1 22.67774,-3.77929 22.677165,3.7795276 0 0 1 22.67773,3.77929 h 22.29883 a 22.677165,3.7795276 0 0 1 22.67578,-3.77929 22.677165,3.7795276 0 0 1 22.67774,3.77929 h 22.29882 a 22.677165,3.7795276 0 0 1 22.67774,-3.77929 22.677165,3.7795276 0 0 1 22.67773,3.77929 h 22.29883 a 22.677165,3.7795276 0 0 1 22.67774,-3.77929 22.677165,3.7795276 0 0 1 22.67578,3.77929 h 26.26758 a 7.5590541,15.11811 0 0 1 7.56054,-15.11718 V 0 H 752.12695 V 66.142578 H 748.3457 V 0 h -61.98437 v 66.142578 h -7.5586 V 0 h -61.98437 v 66.142578 h -3.7793 V 0 h -61.98437 v 66.142578 h -7.5586 V 0 h -61.98437 v 66.142578 h -3.7793 V 0 h -61.98437 v 66.142578 h -7.5586 V 0 h -61.98437 v 66.142578 h -3.7793 V 0 h -61.98437 v 66.142578 h -7.5586 V 0 h -61.98437 v 66.142578 h -3.78125 V 0 h -61.98242 v 66.142578 h -7.56055 V 0 H 75.589844 V 66.142578 H 71.810547 V 0 Z"
       transform="matrix(0.26458333,0,0,0.26458333,0,262)"
       id="rect815"
       inkscape:connector-curvature="0" />
  </g>
</svg>
