<?xml version="1.0" encoding="UTF-8" standalone="no"?>
<!-- Created with Inkscape (http://www.inkscape.org/) -->

<svg
   xmlns:dc="http://purl.org/dc/elements/1.1/"
   xmlns:cc="http://creativecommons.org/ns#"
   xmlns:rdf="http://www.w3.org/1999/02/22-rdf-syntax-ns#"
   xmlns:svg="http://www.w3.org/2000/svg"
   xmlns="http://www.w3.org/2000/svg"
   xmlns:sodipodi="http://sodipodi.sourceforge.net/DTD/sodipodi-0.dtd"
   xmlns:inkscape="http://www.inkscape.org/namespaces/inkscape"
   width="219mm"
   height="35mm"
   viewBox="0 0 219 35"
   version="1.1"
   id="svg8"
   inkscape:version="0.92.3 (2405546, 2018-03-11)"
   sodipodi:docname="vertical-large.svg">
  <defs
     id="defs2" />
  <sodipodi:namedview
     id="base"
     pagecolor="#ffffff"
     bordercolor="#666666"
     borderopacity="1.0"
     inkscape:pageopacity="0.0"
     inkscape:pageshadow="2"
     inkscape:zoom="1.4"
     inkscape:cx="396.21666"
     inkscape:cy="169.29424"
     inkscape:document-units="mm"
     inkscape:current-layer="layer1"
     showgrid="true"
     inkscape:window-width="1920"
     inkscape:window-height="1016"
     inkscape:window-x="0"
     inkscape:window-y="27"
     inkscape:window-maximized="1"
     showguides="true"
     inkscape:guide-bbox="true"
     inkscape:snap-grids="true"
     inkscape:snap-page="false">
    <sodipodi:guide
       position="19.5,0"
       orientation="1,0"
       id="guide4538"
       inkscape:locked="false"
       inkscape:label=""
       inkscape:color="rgb(0,0,255)" />
    <sodipodi:guide
       position="198.5,0"
       orientation="1,0"
       id="guide4540"
       inkscape:locked="false"
       inkscape:label=""
       inkscape:color="rgb(0,0,255)" />
    <sodipodi:guide
       position="37.4,0"
       orientation="1,0"
       id="guide4542"
       inkscape:locked="false"
       inkscape:label=""
       inkscape:color="rgb(0,0,255)" />
    <sodipodi:guide
       position="55.3,0"
       orientation="1,0"
       id="guide4544"
       inkscape:locked="false"
       inkscape:label=""
       inkscape:color="rgb(0,0,255)" />
    <sodipodi:guide
       position="73.2,0"
       orientation="1,0"
       id="guide4546"
       inkscape:locked="false"
       inkscape:label=""
       inkscape:color="rgb(0,0,255)" />
    <sodipodi:guide
       position="91.1,0"
       orientation="1,0"
       id="guide4548"
       inkscape:locked="false"
       inkscape:label=""
       inkscape:color="rgb(0,0,255)" />
    <sodipodi:guide
       position="109,0"
       orientation="1,0"
       id="guide4550"
       inkscape:locked="false"
       inkscape:label=""
       inkscape:color="rgb(0,0,255)" />
    <sodipodi:guide
       position="126.9,0"
       orientation="1,0"
       id="guide4552"
       inkscape:locked="false"
       inkscape:label=""
       inkscape:color="rgb(0,0,255)" />
    <sodipodi:guide
       position="144.8,0"
       orientation="1,0"
       id="guide4554"
       inkscape:locked="false"
       inkscape:label=""
       inkscape:color="rgb(0,0,255)" />
    <sodipodi:guide
       position="162.7,0"
       orientation="1,0"
       id="guide4556"
       inkscape:locked="false"
       inkscape:label=""
       inkscape:color="rgb(0,0,255)" />
    <sodipodi:guide
       position="180.6,0"
       orientation="1,0"
       id="guide4617"
       inkscape:locked="false"
       inkscape:label=""
       inkscape:color="rgb(0,0,255)" />
    <sodipodi:guide
       position="0,0"
       orientation="1,0"
       id="guide824"
       inkscape:locked="false"
       inkscape:label=""
       inkscape:color="rgb(0,0,255)" />
    <sodipodi:guide
       position="219,0"
       orientation="1,0"
       id="guide826"
       inkscape:locked="false"
       inkscape:label=""
       inkscape:color="rgb(0,0,255)" />
    <sodipodi:guide
       position="23,0"
       orientation="1,0"
       id="guide827"
       inkscape:locked="false"
       inkscape:label=""
       inkscape:color="rgb(0,0,255)" />
  </sodipodi:namedview>
  <metadata
     id="metadata5">
    <rdf:RDF>
      <cc:Work
         rdf:about="">
        <dc:format>image/svg+xml</dc:format>
        <dc:type
           rdf:resource="http://purl.org/dc/dcmitype/StillImage" />
        <dc:title />
      </cc:Work>
    </rdf:RDF>
  </metadata>
  <g
     inkscape:label="Ebene 1"
     inkscape:groupmode="layer"
     id="layer1"
     transform="translate(0,-262)">
    <path
       style="opacity:1;fill:#000000;fill-opacity:0.15267178;stroke:none;stroke-width:0.66774166;stroke-miterlimit:4;stroke-dasharray:none;stroke-dashoffset:0;stroke-opacity:0.19678716"
       d="M 28.345703,2.6464844 V 75.589844 H 0 v 37.796876 h 37.794922 c 14.611127,-1.3e-4 26.456136,8.45996 26.457031,18.89648 h 26.457031 a 22.677165,1.8897638 0 0 1 22.677736,-1.88867 22.677165,1.8897638 0 0 1 22.67578,1.88867 h 18.33203 a 22.677165,1.8897638 0 0 1 22.67578,-1.88867 22.677165,1.8897638 0 0 1 22.67774,1.88867 h 22.29883 a 22.677165,1.8897638 0 0 1 22.67773,-1.88867 22.677165,1.8897638 0 0 1 22.67773,1.88867 h 22.29883 a 22.677165,1.8897638 0 0 1 22.67774,-1.88867 22.677165,1.8897638 0 0 1 22.67578,1.88867 h 22.29883 a 22.677165,1.8897638 0 0 1 22.67773,-1.88867 22.677165,1.8897638 0 0 1 22.67773,1.88867 h 22.30274 a 22.677165,1.8897638 0 0 1 22.67773,-1.88867 22.677165,1.8897638 0 0 1 22.67578,1.88867 h 22.29688 a 22.677165,1.8897638 0 0 1 22.67578,-1.88867 22.677165,1.8897638 0 0 1 22.67773,1.88867 h 22.29883 a 22.677165,1.8897638 0 0 1 22.67774,-1.88867 22.677165,1.8897638 0 0 1 22.67773,1.88867 h 22.29883 a 22.677165,1.8897638 0 0 1 22.67773,-1.88867 22.677165,1.8897638 0 0 1 22.67579,1.88867 h 22.29882 a 22.677165,1.8897638 0 0 1 22.67774,-1.88867 22.677165,1.8897638 0 0 1 22.67773,1.88867 h 22.48828 c 9e-4,-10.43652 11.84591,-18.89662 26.45704,-18.89648 H 827.7168 V 75.589844 H 799.36914 V 2.6464844 H 754.01758 V 66.142578 h -3.78125 V 2.6464844 H 688.25195 V 66.142578 h -7.55859 V 2.6464844 H 618.70898 V 66.142578 h -3.77929 V 2.6464844 H 552.94531 V 66.142578 h -7.55859 V 2.6464844 H 483.40234 V 66.142578 h -3.77929 V 2.6464844 H 417.63867 V 66.142578 h -7.55859 V 2.6464844 H 348.0957 V 66.142578 h -3.77929 V 2.6464844 H 282.33203 V 66.142578 h -7.55859 V 2.6464844 H 212.78906 V 66.142578 h -3.78125 V 2.6464844 H 147.02539 V 66.142578 h -7.56055 V 2.6464844 H 88.818359 V 66.142578 H 85.039062 V 2.6464844 Z"
       transform="matrix(0.26458333,0,0,0.26458333,0,262)"
       id="rect815"
       inkscape:connector-curvature="0" />
  </g>
</svg>
